<mxfile host="app.diagrams.net" modified="2023-09-30T08:11:57.102Z" agent="Mozilla/5.0 (Windows NT 10.0; Win64; x64) AppleWebKit/537.36 (KHTML, like Gecko) Chrome/117.0.0.0 Safari/537.36" etag="R7_S5rjWuNI8X27GZRty" version="22.0.0" type="device">
  <diagram name="ページ1" id="7xlgtff8WEeSIWT2jsZ6">
    <mxGraphModel dx="934" dy="591" grid="1" gridSize="10" guides="1" tooltips="1" connect="1" arrows="1" fold="1" page="1" pageScale="1" pageWidth="827" pageHeight="1169" math="0" shadow="0">
      <root>
        <mxCell id="0" />
        <mxCell id="1" parent="0" />
        <mxCell id="yF9hUffa3QwHOXRLwSRs-1" value="Actor" style="shape=umlActor;verticalLabelPosition=bottom;verticalAlign=top;html=1;outlineConnect=0;" vertex="1" parent="1">
          <mxGeometry x="10" y="289" width="30" height="60" as="geometry" />
        </mxCell>
        <mxCell id="yF9hUffa3QwHOXRLwSRs-2" value="" style="sketch=0;points=[[0,0,0],[0.25,0,0],[0.5,0,0],[0.75,0,0],[1,0,0],[0,1,0],[0.25,1,0],[0.5,1,0],[0.75,1,0],[1,1,0],[0,0.25,0],[0,0.5,0],[0,0.75,0],[1,0.25,0],[1,0.5,0],[1,0.75,0]];outlineConnect=0;fontColor=#232F3E;fillColor=#C925D1;strokeColor=#ffffff;dashed=0;verticalLabelPosition=bottom;verticalAlign=top;align=center;html=1;fontSize=12;fontStyle=0;aspect=fixed;shape=mxgraph.aws4.resourceIcon;resIcon=mxgraph.aws4.dynamodb;" vertex="1" parent="1">
          <mxGeometry x="600" y="179" width="78" height="78" as="geometry" />
        </mxCell>
        <mxCell id="yF9hUffa3QwHOXRLwSRs-3" value="" style="sketch=0;points=[[0,0,0],[0.25,0,0],[0.5,0,0],[0.75,0,0],[1,0,0],[0,1,0],[0.25,1,0],[0.5,1,0],[0.75,1,0],[1,1,0],[0,0.25,0],[0,0.5,0],[0,0.75,0],[1,0.25,0],[1,0.5,0],[1,0.75,0]];outlineConnect=0;fontColor=#232F3E;fillColor=#ED7100;strokeColor=#ffffff;dashed=0;verticalLabelPosition=bottom;verticalAlign=top;align=center;html=1;fontSize=12;fontStyle=0;aspect=fixed;shape=mxgraph.aws4.resourceIcon;resIcon=mxgraph.aws4.lambda;" vertex="1" parent="1">
          <mxGeometry x="400" y="179" width="78" height="78" as="geometry" />
        </mxCell>
        <mxCell id="yF9hUffa3QwHOXRLwSRs-4" value="" style="sketch=0;points=[[0,0,0],[0.25,0,0],[0.5,0,0],[0.75,0,0],[1,0,0],[0,1,0],[0.25,1,0],[0.5,1,0],[0.75,1,0],[1,1,0],[0,0.25,0],[0,0.5,0],[0,0.75,0],[1,0.25,0],[1,0.5,0],[1,0.75,0]];outlineConnect=0;fontColor=#232F3E;fillColor=#E7157B;strokeColor=#ffffff;dashed=0;verticalLabelPosition=bottom;verticalAlign=top;align=center;html=1;fontSize=12;fontStyle=0;aspect=fixed;shape=mxgraph.aws4.resourceIcon;resIcon=mxgraph.aws4.eventbridge;" vertex="1" parent="1">
          <mxGeometry x="200" y="179" width="78" height="78" as="geometry" />
        </mxCell>
        <mxCell id="yF9hUffa3QwHOXRLwSRs-5" value="" style="ellipse;shape=cloud;whiteSpace=wrap;html=1;" vertex="1" parent="1">
          <mxGeometry x="310" y="20" width="250" height="80" as="geometry" />
        </mxCell>
        <mxCell id="yF9hUffa3QwHOXRLwSRs-6" value="&lt;font style=&quot;font-size: 24px;&quot;&gt;web&lt;/font&gt;" style="text;html=1;align=center;verticalAlign=middle;resizable=0;points=[];autosize=1;strokeColor=none;fillColor=none;" vertex="1" parent="1">
          <mxGeometry x="400" y="40" width="70" height="40" as="geometry" />
        </mxCell>
        <mxCell id="yF9hUffa3QwHOXRLwSRs-23" style="edgeStyle=orthogonalEdgeStyle;rounded=0;orthogonalLoop=1;jettySize=auto;html=1;exitX=1;exitY=0.5;exitDx=0;exitDy=0;exitPerimeter=0;" edge="1" parent="1" source="yF9hUffa3QwHOXRLwSRs-7" target="yF9hUffa3QwHOXRLwSRs-8">
          <mxGeometry relative="1" as="geometry" />
        </mxCell>
        <mxCell id="yF9hUffa3QwHOXRLwSRs-7" value="" style="sketch=0;points=[[0,0,0],[0.25,0,0],[0.5,0,0],[0.75,0,0],[1,0,0],[0,1,0],[0.25,1,0],[0.5,1,0],[0.75,1,0],[1,1,0],[0,0.25,0],[0,0.5,0],[0,0.75,0],[1,0.25,0],[1,0.5,0],[1,0.75,0]];outlineConnect=0;fontColor=#232F3E;fillColor=#8C4FFF;strokeColor=#ffffff;dashed=0;verticalLabelPosition=bottom;verticalAlign=top;align=center;html=1;fontSize=12;fontStyle=0;aspect=fixed;shape=mxgraph.aws4.resourceIcon;resIcon=mxgraph.aws4.api_gateway;" vertex="1" parent="1">
          <mxGeometry x="200" y="379" width="78" height="78" as="geometry" />
        </mxCell>
        <mxCell id="yF9hUffa3QwHOXRLwSRs-8" value="" style="sketch=0;points=[[0,0,0],[0.25,0,0],[0.5,0,0],[0.75,0,0],[1,0,0],[0,1,0],[0.25,1,0],[0.5,1,0],[0.75,1,0],[1,1,0],[0,0.25,0],[0,0.5,0],[0,0.75,0],[1,0.25,0],[1,0.5,0],[1,0.75,0]];outlineConnect=0;fontColor=#232F3E;fillColor=#ED7100;strokeColor=#ffffff;dashed=0;verticalLabelPosition=bottom;verticalAlign=top;align=center;html=1;fontSize=12;fontStyle=0;aspect=fixed;shape=mxgraph.aws4.resourceIcon;resIcon=mxgraph.aws4.lambda;" vertex="1" parent="1">
          <mxGeometry x="400" y="379" width="78" height="78" as="geometry" />
        </mxCell>
        <mxCell id="yF9hUffa3QwHOXRLwSRs-9" style="edgeStyle=orthogonalEdgeStyle;rounded=0;orthogonalLoop=1;jettySize=auto;html=1;exitX=1;exitY=0.25;exitDx=0;exitDy=0;exitPerimeter=0;entryX=0;entryY=0.25;entryDx=0;entryDy=0;entryPerimeter=0;" edge="1" parent="1">
          <mxGeometry relative="1" as="geometry">
            <mxPoint x="278" y="217.5" as="sourcePoint" />
            <mxPoint x="400" y="217.5" as="targetPoint" />
          </mxGeometry>
        </mxCell>
        <mxCell id="yF9hUffa3QwHOXRLwSRs-13" value="15分に1回起動" style="text;html=1;strokeColor=none;fillColor=none;align=center;verticalAlign=middle;whiteSpace=wrap;rounded=0;fontSize=16;" vertex="1" parent="1">
          <mxGeometry x="310" y="170" width="60" height="30" as="geometry" />
        </mxCell>
        <mxCell id="yF9hUffa3QwHOXRLwSRs-14" style="edgeStyle=orthogonalEdgeStyle;rounded=0;orthogonalLoop=1;jettySize=auto;html=1;entryX=0.516;entryY=1.006;entryDx=0;entryDy=0;entryPerimeter=0;" edge="1" parent="1" source="yF9hUffa3QwHOXRLwSRs-3" target="yF9hUffa3QwHOXRLwSRs-5">
          <mxGeometry relative="1" as="geometry" />
        </mxCell>
        <mxCell id="yF9hUffa3QwHOXRLwSRs-15" value="データ&lt;br style=&quot;font-size: 16px;&quot;&gt;取得" style="text;html=1;strokeColor=none;fillColor=none;align=center;verticalAlign=middle;whiteSpace=wrap;rounded=0;fontSize=16;" vertex="1" parent="1">
          <mxGeometry x="450" y="119" width="60" height="30" as="geometry" />
        </mxCell>
        <mxCell id="yF9hUffa3QwHOXRLwSRs-17" value="株価保存&lt;br style=&quot;font-size: 16px;&quot;&gt;登録価格比較" style="text;html=1;align=center;verticalAlign=middle;resizable=0;points=[];autosize=1;strokeColor=none;fillColor=none;fontSize=16;" vertex="1" parent="1">
          <mxGeometry x="480" y="165" width="120" height="50" as="geometry" />
        </mxCell>
        <mxCell id="yF9hUffa3QwHOXRLwSRs-19" value="銘柄・登録価格&lt;br style=&quot;font-size: 16px;&quot;&gt;保存" style="text;html=1;align=center;verticalAlign=middle;resizable=0;points=[];autosize=1;strokeColor=none;fillColor=none;fontSize=16;" vertex="1" parent="1">
          <mxGeometry x="485" y="365" width="140" height="50" as="geometry" />
        </mxCell>
        <mxCell id="yF9hUffa3QwHOXRLwSRs-20" style="edgeStyle=orthogonalEdgeStyle;rounded=0;orthogonalLoop=1;jettySize=auto;html=1;exitX=1;exitY=0.5;exitDx=0;exitDy=0;exitPerimeter=0;entryX=0;entryY=0.5;entryDx=0;entryDy=0;entryPerimeter=0;" edge="1" parent="1" source="yF9hUffa3QwHOXRLwSRs-3" target="yF9hUffa3QwHOXRLwSRs-2">
          <mxGeometry relative="1" as="geometry" />
        </mxCell>
        <mxCell id="yF9hUffa3QwHOXRLwSRs-30" style="edgeStyle=orthogonalEdgeStyle;rounded=0;orthogonalLoop=1;jettySize=auto;html=1;exitX=0;exitY=0.5;exitDx=0;exitDy=0;" edge="1" parent="1" source="yF9hUffa3QwHOXRLwSRs-21" target="yF9hUffa3QwHOXRLwSRs-1">
          <mxGeometry relative="1" as="geometry" />
        </mxCell>
        <mxCell id="yF9hUffa3QwHOXRLwSRs-21" value="" style="shape=image;verticalLabelPosition=bottom;labelBackgroundColor=default;verticalAlign=top;aspect=fixed;imageAspect=0;image=https://upload.wikimedia.org/wikipedia/commons/thumb/2/2e/LINE_New_App_Icon_%282020-12%29.png/480px-LINE_New_App_Icon_%282020-12%29.png;" vertex="1" parent="1">
          <mxGeometry x="110" y="280" width="78" height="78" as="geometry" />
        </mxCell>
        <mxCell id="yF9hUffa3QwHOXRLwSRs-22" style="edgeStyle=orthogonalEdgeStyle;rounded=0;orthogonalLoop=1;jettySize=auto;html=1;entryX=0.5;entryY=1;entryDx=0;entryDy=0;entryPerimeter=0;" edge="1" parent="1" source="yF9hUffa3QwHOXRLwSRs-8" target="yF9hUffa3QwHOXRLwSRs-2">
          <mxGeometry relative="1" as="geometry" />
        </mxCell>
        <mxCell id="yF9hUffa3QwHOXRLwSRs-25" value="" style="edgeStyle=orthogonalEdgeStyle;rounded=0;orthogonalLoop=1;jettySize=auto;html=1;exitX=0.5;exitY=1;exitDx=0;exitDy=0;exitPerimeter=0;entryX=1;entryY=0.5;entryDx=0;entryDy=0;" edge="1" parent="1" source="yF9hUffa3QwHOXRLwSRs-3" target="yF9hUffa3QwHOXRLwSRs-12">
          <mxGeometry relative="1" as="geometry">
            <mxPoint x="439" y="257" as="sourcePoint" />
            <mxPoint x="278" y="319" as="targetPoint" />
          </mxGeometry>
        </mxCell>
        <mxCell id="yF9hUffa3QwHOXRLwSRs-12" value="LINE Notify" style="text;html=1;strokeColor=none;fillColor=none;align=center;verticalAlign=middle;whiteSpace=wrap;rounded=0;fontSize=16;" vertex="1" parent="1">
          <mxGeometry x="200" y="304" width="60" height="30" as="geometry" />
        </mxCell>
        <mxCell id="yF9hUffa3QwHOXRLwSRs-26" value="" style="text;strokeColor=none;fillColor=none;align=left;verticalAlign=middle;spacingTop=-1;spacingLeft=4;spacingRight=4;rotatable=0;labelPosition=right;points=[];portConstraint=eastwest;" vertex="1" parent="1">
          <mxGeometry x="400" y="230" width="20" height="14" as="geometry" />
        </mxCell>
        <mxCell id="yF9hUffa3QwHOXRLwSRs-27" value="AWS Cloud" style="points=[[0,0],[0.25,0],[0.5,0],[0.75,0],[1,0],[1,0.25],[1,0.5],[1,0.75],[1,1],[0.75,1],[0.5,1],[0.25,1],[0,1],[0,0.75],[0,0.5],[0,0.25]];outlineConnect=0;gradientColor=none;html=1;whiteSpace=wrap;fontSize=12;fontStyle=0;container=1;pointerEvents=0;collapsible=0;recursiveResize=0;shape=mxgraph.aws4.group;grIcon=mxgraph.aws4.group_aws_cloud_alt;strokeColor=#232F3E;fillColor=none;verticalAlign=top;align=left;spacingLeft=30;fontColor=#232F3E;dashed=0;" vertex="1" parent="1">
          <mxGeometry x="188" y="153" width="546" height="347" as="geometry" />
        </mxCell>
        <mxCell id="yF9hUffa3QwHOXRLwSRs-32" value="eventbridge" style="text;html=1;align=center;verticalAlign=middle;resizable=0;points=[];autosize=1;strokeColor=none;fillColor=none;" vertex="1" parent="yF9hUffa3QwHOXRLwSRs-27">
          <mxGeometry y="104" width="90" height="30" as="geometry" />
        </mxCell>
        <mxCell id="yF9hUffa3QwHOXRLwSRs-33" value="APIgateway" style="text;html=1;align=center;verticalAlign=middle;resizable=0;points=[];autosize=1;strokeColor=none;fillColor=none;" vertex="1" parent="yF9hUffa3QwHOXRLwSRs-27">
          <mxGeometry x="6" y="304" width="90" height="30" as="geometry" />
        </mxCell>
        <mxCell id="yF9hUffa3QwHOXRLwSRs-31" style="edgeStyle=orthogonalEdgeStyle;rounded=0;orthogonalLoop=1;jettySize=auto;html=1;entryX=0;entryY=0.5;entryDx=0;entryDy=0;entryPerimeter=0;" edge="1" parent="1" source="yF9hUffa3QwHOXRLwSRs-1" target="yF9hUffa3QwHOXRLwSRs-7">
          <mxGeometry relative="1" as="geometry">
            <Array as="points">
              <mxPoint x="40" y="350" />
              <mxPoint x="80" y="350" />
              <mxPoint x="80" y="418" />
            </Array>
          </mxGeometry>
        </mxCell>
      </root>
    </mxGraphModel>
  </diagram>
</mxfile>
